<?xml version="1.0" standalone="no"?>
<!DOCTYPE svg PUBLIC "-//W3C//DTD SVG 20010904//EN"
 "http://www.w3.org/TR/2001/REC-SVG-20010904/DTD/svg10.dtd">
<svg version="1.0" xmlns="http://www.w3.org/2000/svg"
 width="552.000000pt" height="193.000000pt" viewBox="0 0 552.000000 193.000000"
 preserveAspectRatio="xMidYMid meet">
<metadata>
Created by potrace 1.16, written by Peter Selinger 2001-2019
</metadata>
<g transform="translate(0.000000,193.000000) scale(0.100000,-0.100000)"
fill="#000000" stroke="none">
<path d="M1282 1812 c-11 -35 -16 -41 -27 -32 -11 9 -16 7 -25 -10 -6 -12 -17
-19 -23 -17 -7 2 -22 -11 -35 -30 -12 -18 -29 -33 -37 -33 -8 0 -20 -9 -28
-20 -8 -11 -16 -17 -19 -14 -4 3 -9 -4 -13 -15 -3 -12 -19 -27 -33 -35 -30
-15 -126 -108 -149 -143 -9 -13 -21 -23 -29 -23 -7 0 -31 -24 -53 -54 -22 -29
-54 -68 -71 -87 -17 -19 -33 -44 -36 -56 -4 -13 -12 -23 -20 -23 -8 0 -14 -8
-14 -17 0 -19 -35 -81 -55 -98 -6 -5 -20 -36 -30 -67 -10 -31 -22 -55 -27 -52
-13 8 -10 -190 4 -204 7 -7 10 -12 7 -12 -2 0 -92 36 -199 79 l-195 80 -6 -37
c-3 -20 -16 -61 -27 -90 -27 -64 -28 -104 -2 -46 22 49 36 61 43 35 2 -10 -11
-51 -29 -91 -36 -78 -42 -110 -20 -110 19 0 34 21 51 71 15 44 14 12 -1 -40
-6 -20 -4 -23 9 -18 18 7 20 -1 41 -148 12 -91 13 -191 1 -222 -7 -20 13 -25
23 -7 7 13 11 2 17 -45 15 -128 -9 -135 253 79 128 104 235 190 238 190 3 0 2
-5 -2 -12 -5 -8 -2 -9 10 -5 10 4 15 3 11 -3 -3 -6 1 -10 10 -10 9 0 13 -5 9
-11 -4 -7 0 -9 14 -5 12 4 24 2 29 -6 11 -18 89 -59 97 -51 10 10 7 43 -4 43
-5 0 -10 5 -10 11 0 7 10 9 25 5 19 -5 25 -2 25 9 0 9 -4 14 -8 11 -4 -2 -9 7
-10 20 -1 15 2 23 8 19 6 -4 7 -11 4 -17 -5 -7 2 -9 20 -4 15 4 26 2 26 -4 0
-5 5 -10 11 -10 5 0 7 5 3 11 -3 6 0 15 7 20 10 6 8 9 -9 9 -13 0 -21 4 -18 9
3 5 -1 11 -9 15 -8 3 -17 0 -21 -5 -4 -7 -25 -9 -52 -5 -31 4 -51 1 -62 -8
-20 -17 -60 -27 -60 -14 0 6 -8 7 -17 4 -15 -5 -14 -3 2 9 13 10 21 12 23 5 3
-8 8 -7 18 1 8 6 11 16 8 21 -4 6 3 5 15 -1 18 -10 21 -9 21 9 0 12 7 20 16
20 13 0 14 -3 5 -14 -9 -10 -8 -15 4 -20 10 -4 15 1 15 16 0 15 3 18 13 10 6
-5 21 -6 32 -2 11 4 27 4 35 0 27 -13 80 -20 80 -10 0 6 -13 10 -30 10 -16 0
-45 8 -65 17 -28 13 -40 15 -54 6 -26 -16 -49 0 -31 21 7 9 15 14 18 11 3 -3
12 4 20 16 12 18 12 22 -4 34 -11 8 -49 24 -86 36 -38 12 -68 26 -68 32 0 6
-3 7 -6 4 -4 -3 -16 -1 -28 5 -11 7 -29 13 -40 15 -25 4 -55 22 -38 23 8 0 34
18 59 40 25 22 53 40 62 40 14 0 14 2 1 10 -10 6 -5 9 18 8 18 -1 32 -5 32
-10 0 -5 4 -6 10 -3 6 4 7 -1 3 -11 -4 -12 -3 -15 5 -10 17 10 15 1 -4 -14 -8
-8 -14 -9 -13 -4 6 31 -5 36 -43 20 -17 -8 -14 -34 6 -48 17 -12 28 -9 20 4
-5 8 3 9 29 5 22 -3 37 -2 37 4 0 6 -4 7 -10 4 -6 -4 -7 1 -3 11 4 11 8 13 11
6 2 -7 8 -12 13 -12 6 0 7 6 3 13 -4 6 -3 9 1 4 5 -4 16 0 26 9 10 9 25 14 34
10 16 -6 65 20 65 34 0 5 -9 6 -20 3 -11 -3 -20 -12 -20 -19 0 -8 -4 -14 -9
-14 -5 0 -8 8 -6 18 1 9 0 11 -2 5 -3 -7 -9 -13 -14 -13 -5 0 -9 6 -9 13 -1 8
-5 7 -13 -3 -13 -18 -54 -24 -62 -10 -3 5 6 12 20 16 26 6 32 18 15 29 -5 3
-10 1 -10 -5 0 -15 -44 -30 -69 -23 -26 7 -27 28 -1 46 11 8 17 17 13 20 -3 4
2 7 11 7 23 0 15 -22 -12 -35 -12 -5 -22 -13 -22 -18 0 -4 5 -5 10 -2 6 3 10
2 10 -4 0 -14 29 -2 52 21 16 16 16 18 2 18 -11 0 -14 5 -10 16 3 9 6 18 6 21
0 4 9 -2 21 -13 17 -15 22 -16 29 -4 6 10 3 18 -11 25 -12 7 -16 14 -10 20 6
6 4 15 -5 23 -12 11 -14 9 -14 -8 0 -11 -6 -23 -14 -26 -8 -3 -12 -12 -10 -19
4 -10 -1 -12 -17 -8 -13 4 -18 8 -11 11 7 2 10 7 7 11 -2 4 16 29 40 56 25 26
45 53 45 60 0 6 9 20 20 30 11 10 19 23 17 29 -2 6 7 24 20 39 13 16 28 49 34
73 8 29 24 55 49 78 21 19 41 45 45 58 4 12 16 32 26 43 10 11 18 23 18 28 1
12 32 70 53 96 10 14 16 32 12 43 -3 11 0 20 11 24 9 4 14 12 11 19 -2 7 4 21
15 31 11 10 17 24 15 31 -3 7 -1 15 3 18 14 8 20 67 13 110 l-7 40 -13 -43z
m-923 -1029 c-6 -7 -9 -18 -6 -25 4 -9 6 -7 6 4 1 9 7 18 14 21 16 5 77 -24
77 -37 0 -7 3 -7 8 1 5 8 17 6 44 -7 20 -10 40 -15 45 -11 4 3 1 -2 -6 -11 -7
-10 -18 -15 -24 -11 -6 3 -7 1 -3 -5 9 -14 -3 -62 -16 -62 -5 0 -6 5 -3 10 14
23 -47 55 -127 66 -29 4 -49 12 -53 22 -5 14 -7 14 -15 2 -7 -11 -10 -11 -10
-2 0 7 7 15 15 18 11 5 12 11 4 25 -7 13 -6 19 1 19 6 0 9 4 6 9 -4 5 7 4 23
-2 23 -8 27 -14 20 -24z m266 -97 c8 -7 11 -17 7 -22 -4 -5 0 -3 9 4 16 12 49
7 49 -7 0 -4 9 -7 20 -8 30 -3 56 -31 41 -46 -10 -9 -12 -9 -9 2 2 7 -3 16
-11 19 -8 3 -11 0 -7 -7 5 -7 -1 -11 -16 -11 -23 -1 -23 -1 -2 -13 27 -16 18
-62 -11 -62 -18 0 -21 -6 -16 -35 2 -17 21 -11 22 8 0 10 3 12 6 5 2 -7 9 -13
14 -13 6 0 9 6 8 13 -5 37 3 67 19 76 20 10 52 -3 39 -16 -5 -4 -11 -2 -15 4
-5 7 -13 9 -21 4 -9 -6 -6 -10 13 -15 31 -8 34 -22 7 -29 -15 -4 -18 -1 -14
12 4 9 2 13 -2 8 -5 -4 -9 -17 -10 -30 -1 -13 -13 -28 -29 -37 -25 -14 -28
-13 -40 3 -15 19 -36 23 -36 6 0 -5 5 -7 12 -3 7 5 8 3 4 -5 -5 -7 -15 -10
-23 -7 -8 3 -11 1 -8 -4 7 -12 -8 -14 -19 -2 -4 4 -12 7 -17 7 -5 0 -9 5 -8
10 1 6 4 9 8 8 4 -1 8 5 8 13 0 8 -9 14 -19 14 -10 0 -21 7 -24 15 -4 8 -10
12 -15 9 -5 -3 -9 4 -9 15 0 10 -3 26 -6 34 -3 10 7 26 27 44 17 15 37 33 43
40 14 16 15 16 31 -1z"/>
<path d="M1470 950 c0 -793 2 -900 15 -900 13 0 15 107 15 900 0 793 -2 900
-15 900 -13 0 -15 -107 -15 -900z"/>
<path d="M1975 1539 c-106 -13 -265 -90 -265 -130 0 -40 33 -41 132 -2 76 30
110 37 185 41 88 4 93 3 117 -21 35 -35 33 -74 -4 -125 -35 -49 -122 -102
-167 -102 -28 0 -33 -4 -33 -23 0 -35 19 -47 75 -47 69 0 148 47 193 114 26
40 32 58 32 103 0 138 -100 211 -265 192z"/>
<path d="M3940 1539 c-117 -16 -260 -89 -260 -133 0 -35 31 -38 100 -10 61 25
86 31 60 14 -29 -18 -53 -439 -29 -522 10 -38 35 -51 45 -24 3 8 12 12 20 9
12 -4 14 24 14 178 0 101 3 228 7 281 l6 97 -24 -4 c-13 -3 -6 2 16 9 56 20
184 20 212 1 30 -21 38 -67 18 -106 -34 -65 -126 -128 -188 -129 -26 0 -28 -3
-25 -32 3 -32 4 -33 59 -36 75 -4 149 34 199 103 32 45 35 56 35 115 0 56 -4
73 -28 108 -46 70 -124 96 -237 81z"/>
<path d="M1893 1417 c-36 -11 -36 -11 -54 -232 -13 -156 -6 -302 15 -323 11
-12 17 -12 37 0 13 7 26 14 28 15 2 1 3 80 3 175 -1 95 2 216 7 268 4 52 5 98
2 101 -3 3 -20 2 -38 -4z"/>
<path d="M2372 1243 c-8 -3 -22 -19 -33 -37 -13 -21 -19 -26 -19 -13 0 20 -48
43 -62 29 -5 -5 -12 -90 -15 -188 -7 -196 -3 -212 50 -199 24 7 25 8 29 133 3
101 8 135 23 166 23 44 42 45 37 2 -6 -49 46 -65 66 -21 36 78 -10 154 -76
128z"/>
<path d="M4342 1243 c-8 -3 -22 -19 -33 -37 -13 -21 -19 -26 -19 -13 0 20 -48
43 -62 29 -5 -5 -12 -90 -15 -188 -7 -196 -3 -212 50 -199 24 7 25 8 29 133 3
101 8 135 23 166 23 44 42 45 37 2 -6 -49 46 -65 66 -21 36 78 -10 154 -76
128z"/>
<path d="M4474 1239 c-10 -16 -19 -319 -10 -353 3 -14 16 -30 27 -37 41 -21
47 1 50 206 l4 190 -32 3 c-17 2 -35 -2 -39 -9z"/>
<path d="M2584 1224 c-78 -41 -118 -110 -118 -204 0 -77 19 -119 67 -149 41
-25 124 -28 167 -6 115 60 133 280 27 349 -34 23 -108 28 -143 10z m83 -59
c71 -50 63 -233 -12 -267 -78 -36 -134 93 -86 199 19 41 54 83 69 83 4 0 17
-7 29 -15z"/>
<path d="M2975 1212 c-33 -16 -75 -41 -93 -57 -28 -23 -33 -33 -30 -64 l3 -36
93 -1 c51 -1 97 -5 103 -11 22 -22 -104 -123 -155 -123 -19 0 -18 1 2 23 48
51 8 80 -42 31 -31 -32 -35 -83 -8 -107 30 -27 107 -22 178 12 73 35 104 70
104 121 0 57 -48 94 -140 106 -49 6 -52 8 -34 21 10 8 35 23 55 33 33 17 37
18 35 2 -2 -24 24 -25 62 -2 27 16 33 26 30 48 -3 25 -7 27 -53 30 -38 2 -64
-4 -110 -26z"/>
<path d="M3266 1208 c-108 -89 -117 -277 -16 -345 49 -34 137 -32 180 3 39 33
56 67 65 125 10 64 -7 69 -43 11 -47 -73 -99 -96 -156 -71 -28 13 -56 64 -56
101 0 34 9 40 34 23 28 -20 115 -19 145 1 35 25 52 74 40 117 -12 46 -46 67
-106 67 -40 0 -56 -6 -87 -32z"/>
<path d="M4742 1218 c-61 -23 -142 -95 -142 -125 0 -34 25 -46 83 -40 58 7
119 -3 124 -19 6 -18 -68 -83 -114 -100 -52 -20 -65 -13 -35 19 28 29 28 47 2
47 -33 0 -70 -44 -70 -84 0 -49 21 -66 84 -66 39 0 69 8 115 31 94 47 126 115
80 172 -20 27 -99 57 -146 57 -34 0 -20 16 37 45 45 23 48 23 43 5 -7 -25 16
-26 57 -5 30 15 48 54 35 74 -10 18 -96 12 -153 -11z"/>
<path d="M4965 1217 c-3 -12 -9 -100 -12 -194 -6 -170 -5 -173 15 -173 32 0
49 24 56 79 8 62 61 203 87 233 19 23 19 22 17 -142 l-3 -164 30 -3 c30 -2 31
-1 59 89 27 90 77 203 98 223 7 7 8 -33 3 -132 -8 -160 -2 -183 45 -183 17 0
30 3 30 8 5 79 8 332 4 344 -3 10 -23 23 -45 29 -34 11 -41 10 -60 -7 -12 -10
-37 -50 -55 -89 l-34 -70 2 66 c3 77 -9 99 -56 99 -36 0 -61 -22 -95 -85 l-22
-40 6 43 c8 64 -1 89 -35 90 -20 0 -30 -5 -35 -21z"/>
<path d="M3895 653 c-46 -24 -75 -54 -75 -79 0 -33 18 -39 40 -12 19 23 19 23
3 -37 -9 -33 -22 -65 -30 -71 -8 -7 -13 -23 -11 -35 1 -13 -1 -43 -6 -67 -4
-24 -6 -45 -3 -48 2 -2 16 0 30 5 20 8 27 19 32 54 6 38 11 45 42 56 42 16 99
64 119 102 32 63 5 139 -50 139 -12 0 -30 2 -41 4 -11 3 -33 -3 -50 -11z"/>
<path d="M1875 640 c-62 -31 -91 -92 -65 -141 6 -10 33 -30 60 -44 57 -29 63
-49 26 -92 -21 -23 -28 -26 -43 -17 -13 8 -18 23 -17 53 1 37 -1 41 -20 35
-25 -7 -56 -41 -56 -61 0 -7 11 -25 25 -38 46 -46 148 -26 180 35 30 59 18 93
-45 125 -26 13 -55 32 -64 41 -16 15 -16 18 5 40 43 46 129 40 114 -7 -9 -26
7 -24 33 4 65 69 -32 117 -133 67z"/>
<path d="M2408 643 c-10 -2 -21 -16 -24 -29 -5 -17 -15 -27 -36 -31 -32 -6
-33 -25 -1 -33 21 -5 21 -6 -8 -99 -30 -98 -28 -118 10 -106 15 4 21 15 21 34
0 15 11 58 23 97 19 54 28 70 45 72 27 4 27 4 -3 -93 -28 -92 -31 -115 -11
-115 28 0 44 12 39 28 -2 10 8 54 22 100 l26 82 60 0 c57 0 59 1 49 20 -8 15
-21 20 -52 20 -40 0 -40 1 -34 30 3 17 1 30 -3 30 -23 0 -43 -15 -52 -36 -5
-14 -17 -24 -29 -24 -16 0 -19 5 -13 30 5 30 3 32 -29 23z"/>
<path d="M3383 640 c-14 -6 -23 -18 -23 -30 0 -15 -8 -22 -30 -26 -33 -7 -41
-34 -10 -34 25 0 25 -3 -7 -110 -14 -50 -24 -93 -20 -96 3 -4 18 -4 32 0 20 5
25 12 25 38 0 53 42 168 61 168 15 0 15 -9 -8 -96 -24 -98 -22 -123 12 -111 8
4 18 15 22 24 10 29 55 104 59 100 2 -2 -3 -23 -11 -47 -23 -65 -20 -82 13
-78 21 2 26 8 24 23 -1 12 4 40 13 64 20 59 19 78 -7 92 -19 10 -25 8 -45 -15
-26 -31 -27 -30 -12 13 6 17 17 31 25 31 16 0 19 16 4 25 -5 3 -7 19 -3 36 5
28 4 30 -18 27 -13 -1 -28 -13 -34 -25 -15 -35 -38 -30 -30 7 7 32 3 34 -32
20z"/>
<path d="M5002 641 c-8 -4 -19 -19 -26 -32 -6 -13 -22 -25 -34 -27 -27 -4 -29
-32 -2 -32 25 0 25 1 -5 -95 -28 -92 -31 -115 -11 -115 28 0 44 12 39 28 -2
10 8 55 22 101 26 82 27 83 56 77 16 -3 42 -3 57 0 24 5 28 10 24 31 -4 24 -8
25 -50 19 l-44 -6 6 30 c6 31 -5 38 -32 21z"/>
<path d="M2046 508 c-19 -19 -40 -53 -46 -76 -11 -35 -11 -45 4 -67 9 -14 26
-25 37 -25 28 0 75 26 83 45 12 32 6 35 -23 14 -52 -38 -77 -9 -45 53 14 27
18 29 26 15 22 -39 72 -9 66 40 -2 24 -8 29 -36 31 -26 3 -39 -3 -66 -30z"/>
<path d="M2559 513 c-51 -43 -77 -131 -47 -161 22 -22 68 -14 99 17 28 29 37
51 21 51 -5 0 -17 -9 -27 -20 -21 -23 -55 -27 -55 -5 0 8 9 15 19 15 27 0 78
45 85 76 14 56 -41 72 -95 27z"/>
<path d="M3135 531 c-53 -9 -62 -15 -85 -61 -36 -71 -17 -137 37 -127 29 5 30
-12 2 -47 -29 -37 -43 -33 -35 9 7 38 5 40 -25 25 -27 -15 -26 -75 1 -90 28
-15 85 11 103 47 16 30 77 223 77 242 0 12 -12 12 -75 2z"/>
<path d="M3609 513 c-51 -43 -77 -131 -47 -161 22 -22 68 -14 99 17 28 29 37
51 21 51 -5 0 -17 -9 -27 -20 -21 -23 -55 -27 -55 -5 0 8 9 15 19 15 27 0 78
45 85 76 14 56 -41 72 -95 27z"/>
<path d="M4078 523 c-53 -34 -88 -139 -56 -171 31 -31 118 6 118 50 0 21 0 21
-24 -1 -25 -24 -56 -25 -64 -3 -2 7 6 12 23 12 41 0 87 51 83 92 -2 27 -8 33
-28 35 -14 2 -37 -5 -52 -14z"/>
<path d="M4347 516 c-33 -23 -35 -23 -40 -5 -6 21 -41 26 -53 8 -4 -8 -8 -8
-13 0 -4 5 -16 8 -28 5 -17 -5 -26 -21 -39 -63 -25 -88 -29 -121 -13 -121 24
0 36 14 43 50 3 19 17 49 31 65 24 29 24 30 25 6 0 -23 1 -23 25 -7 24 16 25
15 25 -3 0 -22 27 -41 59 -41 28 0 27 -17 -1 -26 -15 -4 -25 -1 -35 12 -13 17
-14 17 -35 -3 -18 -18 -19 -24 -8 -37 16 -21 79 -21 108 0 14 9 22 26 22 44 0
22 -6 30 -30 39 -19 6 -30 17 -30 28 0 22 18 43 37 43 11 0 11 -5 3 -20 -9
-18 -8 -20 14 -20 19 0 27 7 32 24 3 14 3 30 -1 35 -11 19 -61 12 -98 -13z"/>
<path d="M4669 513 c-51 -43 -77 -131 -47 -161 22 -22 68 -14 99 17 28 29 37
51 21 51 -5 0 -17 -9 -27 -20 -21 -23 -55 -27 -55 -5 0 8 9 15 19 15 27 0 78
45 85 76 14 56 -41 72 -95 27z"/>
<path d="M4825 520 c-39 -25 -65 -75 -65 -123 0 -30 5 -40 25 -49 33 -15 72
-2 98 34 26 35 14 49 -16 20 -50 -48 -76 -8 -41 61 16 31 17 31 25 9 10 -27
30 -28 54 -2 12 13 15 27 11 45 -8 31 -47 34 -91 5z"/>
<path d="M5303 521 c-82 -51 -92 -181 -14 -181 31 0 81 40 81 65 0 13 -5 12
-29 -6 -16 -12 -37 -19 -45 -16 -24 10 -19 27 8 27 38 0 88 56 84 94 -2 25 -8
32 -28 34 -14 1 -39 -6 -57 -17z"/>
<path d="M2212 508 c-38 -24 -76 -99 -68 -133 8 -31 40 -41 70 -22 20 13 23
13 32 -1 13 -20 49 -8 40 13 -3 8 3 43 14 78 11 34 20 67 20 73 0 18 -76 13
-108 -8z"/>
<path d="M2695 515 c-15 -12 -45 -112 -45 -150 0 -44 30 -26 51 31 20 54 69
114 55 67 -9 -28 5 -30 29 -3 10 11 20 19 21 17 2 -2 -3 -27 -11 -57 -20 -73
-19 -82 6 -78 17 2 26 21 49 91 15 48 25 89 21 92 -13 7 -51 -7 -51 -19 0 -6
-6 -4 -13 5 -14 19 -91 21 -112 4z"/>
<path d="M4482 521 c-10 -7 -82 -247 -82 -274 0 -35 50 -14 51 22 1 27 27 105
28 84 1 -8 15 -13 35 -13 25 0 40 7 55 26 31 39 46 99 35 132 -9 24 -14 27
-61 28 -29 0 -56 -2 -61 -5z"/>
<path d="M5105 456 c-8 -85 -1 -116 25 -116 22 0 72 58 100 116 26 53 26 76
-1 72 -15 -2 -25 -18 -39 -56 -9 -30 -25 -61 -35 -70 -17 -16 -17 -15 -11 18
21 110 21 110 -7 110 -24 0 -26 -3 -32 -74z"/>
<path d="M2909 513 c-18 -4 -54 -152 -41 -165 17 -17 43 5 73 63 18 33 33 58
35 56 2 -2 -3 -25 -11 -52 -20 -66 -19 -77 6 -73 16 2 26 17 40 63 11 33 18
71 17 85 -4 35 -42 39 -68 8 l-19 -23 6 23 c5 22 -2 25 -38 15z"/>
</g>
</svg>
